<?xml version="1.0" encoding="UTF-8" standalone="no"?>
<!-- Created with Inkscape (http://www.inkscape.org/) -->

<svg
   version="1.1"
   id="svg1"
   width="170"
   height="170"
   viewBox="0 0 170 170"
   xmlns="http://www.w3.org/2000/svg"
   xmlns:svg="http://www.w3.org/2000/svg">
  <defs
     id="defs1">
    <clipPath
       clipPathUnits="userSpaceOnUse"
       id="clipPath5">
      <ellipse
         style="fill:#000000"
         id="ellipse5"
         cx="168.49039"
         cy="141.20192"
         rx="79.644234"
         ry="81.54808" />
    </clipPath>
  </defs>
  <g
     id="g1"
     style="display:inline"
     transform="translate(-83.769231,-55.846154)"
     clip-path="url(#clipPath5)">
    <path
       style="fill:#91e0ee"
       d="m 1.7949633,130.89748 c 0,-21.36424 -1.0129571,-42.714076 -1.51946406,-64.072311 C -0.23015096,45.50306 -0.23049213,24.129192 1.7949633,2.8974821 1.846556,2.3566649 2.0436275,1.8094571 2.4483763,1.4470713 l 2.2e-5,-1.98e-5 C 2.8110726,1.1223475 3.294108,0.9623033 3.7748833,0.8860058 4.8253586,0.71929869 5.896986,0.8974821 6.9606071,0.8974821 c 53.7724089,0 107.5085629,-2.5495474 161.2658529,-3.8243925 53.66636,-1.2726888 107.463,-1.2735475 160.90184,3.8243925 l 3e-5,2.81e-6 c 0.54081,0.051597 1.088,0.24866869 1.45038,0.65341009 l 2e-5,2.21e-5 c 0.3247,0.3626743 0.48475,0.8457097 0.56105,1.3264849 0.1667,1.0504754 -0.0115,2.1221027 -0.0115,3.1857238 0,42.8677442 2.03252,85.7065832 3.04883,128.5622742 1.0146,42.78321 1.01528,85.67027 -3.04883,128.27209 -0.0516,0.54082 -0.24866,1.08802 -0.65341,1.45041 l -5e-5,4e-5 c -0.36267,0.32469 -0.84569,0.48473 -1.32646,0.56103 -1.05048,0.1667 -2.1221,-0.0115 -3.18572,-0.0115 -53.77241,0 -107.50856,2.54955 -161.26586,3.82439 h -6e-5 C 111.0304,269.99457 57.233781,269.99543 3.7949633,264.89749 l -5.89e-5,-1e-5 c -0.540798,-0.0516 -1.0879792,-0.24867 -1.4503519,-0.6534 -0.3247173,-0.36268 -0.4847664,-0.84573 -0.5610655,-1.32651 -0.1667071,-1.05048 0.011476,-2.1221 0.011476,-3.18572 z m 141.0632467,55.6519 c -3.44744,-0.32147 -6.819,-1.44338 -9.7156,-3.3339 l -2e-5,-1e-5 c -5.31183,-3.46685 -8.72533,-9.57679 -9.19758,-15.90225 -0.22257,-2.98123 -0.0472,-6.06156 1.15153,-8.80021 1.41977,-3.24361 3.31873,-6.31027 5.82505,-8.81129 l 2e-5,-2e-5 c 2.40614,-2.40106 5.54374,-4.2434 8.93957,-4.39517 h 3e-5 c 5.53403,-0.24731 11.10663,0.20562 16.60115,-0.49925 l 3e-5,-1e-5 c 0.54108,-0.0694 1.08608,-0.2918 1.41722,-0.72532 0.30128,-0.39443 0.41752,-0.89998 0.46732,-1.39381 0.10973,-1.08794 -0.10533,-2.20246 0.1147,-3.27355 0.19291,-0.93909 0.0715,-1.98508 -0.53052,-2.73122 l -2e-5,-2e-5 c -0.64008,-0.79334 -1.71634,-1.11845 -2.73569,-1.1192 h -3e-5 c -8.44229,-0.006 -17.2279,0.0385 -24.80371,3.76397 l -2e-5,10e-6 c -5.77759,2.84123 -10.32263,7.92594 -12.95894,13.79987 -2.65636,5.9186 -3.50443,12.65369 -2.30574,19.02936 1.09315,5.81429 4.18263,11.18621 8.44199,15.29216 4.28116,4.12694 9.74186,7.03943 15.57407,8.19931 4.96978,0.98837 10.20434,0.71206 14.99987,-0.92454 5.54174,-1.79557 10.57787,-5.13785 14.39466,-9.53865 3.72031,-4.28956 6.24318,-9.7802 6.24778,-15.45832 0.0225,-27.73707 2.5805,-55.54549 0.01,-83.163171 -0.0504,-0.541725 -0.24661,-1.089799 -0.65012,-1.454746 -0.3618,-0.327217 -0.84446,-0.491086 -1.32566,-0.571162 -1.0505,-0.174813 -2.12477,-0.0051 -3.18969,-0.01318 h -3e-5 c -6.61478,-0.05006 -13.18305,-1.033072 -19.77781,-1.549862 l -1e-5,-10e-7 c -6.4933,-0.508839 -13.13496,-0.561849 -19.39008,1.253474 -0.76947,0.223312 -1.39217,0.814649 -1.79904,1.504873 l -1e-5,1.1e-5 c -0.45056,0.764324 -0.68662,1.64251 -0.77525,2.525309 -0.0868,0.864949 -0.0365,1.751454 0.22113,2.581697 0.20797,0.670234 0.57249,1.340726 1.19004,1.674049 2.99583,1.617003 6.63804,0.941679 10.04193,0.99856 h 3e-5 c 4.28549,0.07162 8.49704,-1.009355 12.74857,-1.552588 2.05312,-0.262334 4.1336,-0.417182 6.19233,-0.203276 1.96962,0.204647 3.91739,0.789849 5.58372,1.859734 l 2e-5,1.4e-5 c 0.74008,0.475184 1.31159,1.19628 1.63335,2.014809 v 1.2e-5 c 0.33252,0.845922 0.4367,1.765409 0.45551,2.674144 0.0395,1.90718 -0.32173,3.8044 -0.30881,5.71194 0.1486,21.92934 2.8402,43.98582 -0.18938,65.70539 -0.5365,3.84621 -2.65052,7.31708 -5.19624,10.24973 -2.24077,2.58134 -5.21339,4.46457 -8.459,5.55824 m 52.02,-41.74699 c 9.47409,-2.52621 17.33708,-10.08935 20.76228,-19.27674 2.05626,-5.51554 2.1519,-11.68082 0.62183,-17.36485 v -1e-5 c -1.55023,-5.75893 -4.68596,-11.07262 -8.91136,-15.281467 -4.75172,-4.7331 -11.53485,-7.009546 -18.22762,-7.44288 -4.55146,-0.29469 -9.12677,-0.643667 -13.66489,-0.187568 l -1e-5,10e-7 c -0.51476,0.05174 -1.04176,0.242091 -1.36312,0.647536 -0.28774,0.363031 -0.39522,0.837473 -0.43475,1.29902 -0.0879,1.025848 0.14747,2.063978 0.0183,3.085448 -0.1209,0.95616 0.0117,1.980677 0.56659,2.768696 v 5e-6 c 0.59094,0.839238 1.63541,1.263111 2.65962,1.330268 l 2e-5,10e-7 c 2.9923,0.196194 5.99581,0.04237 8.99398,0.100173 2.9645,0.05715 5.96638,0.329889 8.74802,1.35655 4.89265,1.805805 8.91942,5.675827 11.25066,10.341057 2.33492,4.67261 2.99042,10.24136 1.41805,15.22261 -1.17304,3.71616 -3.21788,7.16994 -5.97994,9.91892 -2.67285,2.66019 -6.1893,4.63483 -9.95649,4.8053 h -1e-5 c -2.75313,0.12458 -5.50271,-0.2313 -8.25551,-0.36312 -2.69313,-0.12896 -5.46424,-0.0388 -7.9656,0.96756 -0.87285,0.35117 -1.48657,1.1593 -1.88627,2.01102 v 1e-5 c -0.45864,0.97733 -0.68645,2.05433 -0.74469,3.13234 v 1e-5 c -0.0525,0.97173 0.0153,1.973 0.39489,2.86907 0.27203,0.64223 0.83531,1.24252 1.53245,1.22116 6.82976,-0.20921 13.76199,0.36072 20.42355,-1.16012 z"
       id="path1" />
  </g>
</svg>
